<svg width="442" height="145" viewBox="0 0 442 145" fill="none" xmlns="http://www.w3.org/2000/svg">
<g clip-path="url(#clip0_1292_2220)">
<path d="M89.0708 33.4983H74.05V141.252H36.6844V33.4983H0V0H110.73V11.8347C110.73 23.7954 101.032 33.4937 89.0708 33.4937V33.4983Z" fill="#ECC30C"/>
<path d="M197.174 36.9688V141.14H169.437L166.363 133.774C157.831 140.683 147.032 144.666 134.931 144.666C103.079 144.666 80.3101 121.431 80.3101 89.0566C80.3101 56.6825 103.079 33.834 134.931 33.834C147.2 33.834 158.157 37.9297 166.759 45.0296L170.431 36.9734H197.174V36.9688ZM163.046 89.1359C163.046 75.6171 153.166 65.4617 139.726 65.4617C126.287 65.4617 116.407 75.6171 116.407 89.1359C116.407 102.655 126.287 112.894 139.726 112.894C153.166 112.894 163.046 102.739 163.046 89.1359Z" fill="#11112B"/>
<path d="M276.052 141.252L258.928 110.394L241.458 141.252H201.834L236.387 87.2094L204.367 37.0854H243.972L259.021 63.3206L274.76 37.0854H313.81L281.529 86.2717L316.147 141.256H276.052V141.252Z" fill="#11112B"/>
<path d="M272.386 86.6169L241.458 141.252H201.834L236.387 87.2094L204.367 37.0854H243.972L272.386 86.6216V86.6169Z" fill="#ECC30C" stroke="#ECC30C" stroke-width="0.466486" stroke-miterlimit="10"/>
<path d="M356.013 73.6069H320.131V140.972H356.013V73.6069Z" fill="#11112B"/>
<path d="M320.406 36.8052H355.737V45.5938C355.737 57.5545 346.039 67.2527 334.079 67.2527H320.406V36.8052Z" fill="#11112B"/>
<path d="M442 73.6069H406.118V140.972H442V73.6069Z" fill="#11112B"/>
<path d="M406.393 36.8052H441.725V45.5938C441.725 57.5545 432.026 67.2527 420.066 67.2527H406.393V36.8052Z" fill="#11112B"/>
<path d="M363.598 36.833H399.48V119.849C399.48 131.81 389.781 141.508 377.821 141.508H363.598V36.833Z" fill="#11112B"/>
</g>
<defs>
<clipPath id="clip0_1292_2220">
<rect width="442" height="144.667" fill="white"/>
</clipPath>
</defs>
</svg>
